<svg width="60" height="60" viewBox="0 0 60 60" fill="none" xmlns="http://www.w3.org/2000/svg">
<path d="M34.9999 30.625C33.1457 30.625 31.3332 30.0753 29.7914 29.045C28.2497 28.015 27.0482 26.5508 26.3387 24.8377C25.6289 23.1246 25.4434 21.2396 25.8052 19.421C26.1669 17.6025 27.0597 15.932 28.3709 14.6209C29.6819 13.3098 31.3524 12.4169 33.1709 12.0552C34.9894 11.6934 36.8744 11.8791 38.5877 12.5886C40.3007 13.2982 41.7649 14.4998 42.7949 16.0415C43.8252 17.5833 44.3749 19.3958 44.3749 21.25C44.3749 23.7364 43.3872 26.121 41.6292 27.8793C39.8709 29.6373 37.4864 30.625 34.9999 30.625ZM34.9999 15.625C33.8874 15.625 32.7999 15.9549 31.8749 16.573C30.9499 17.1911 30.2289 18.0696 29.8032 19.0974C29.3774 20.1253 29.2659 21.2563 29.4829 22.3474C29.7002 23.4385 30.2357 24.4408 31.0224 25.2275C31.8092 26.0143 32.8114 26.55 33.9024 26.767C34.9937 26.984 36.1247 26.8725 37.1524 26.4468C38.1804 26.021 39.0589 25.3 39.6769 24.3751C40.2949 23.4501 40.6249 22.3625 40.6249 21.25C40.6249 19.7582 40.0322 18.3274 38.9774 17.2725C37.9224 16.2176 36.4917 15.625 34.9999 15.625Z" fill="black"/>
<path d="M52.5 48.125C52.0047 48.1185 51.5315 47.919 51.1812 47.5688C50.831 47.2185 50.6315 46.7452 50.625 46.25C50.625 41.375 47.975 38.125 35 38.125C22.025 38.125 19.375 41.375 19.375 46.25C19.375 46.7472 19.1775 47.2243 18.8258 47.5758C18.4742 47.9275 17.9973 48.125 17.5 48.125C17.0027 48.125 16.5258 47.9275 16.1742 47.5758C15.8225 47.2243 15.625 46.7472 15.625 46.25C15.625 34.375 29.2 34.375 35 34.375C40.8 34.375 54.375 34.375 54.375 46.25C54.3685 46.7452 54.169 47.2185 53.8187 47.5688C53.4685 47.919 52.9952 48.1185 52.5 48.125Z" fill="black"/>
<path d="M20.7999 32.65H19.9999C18.0108 32.4578 16.1795 31.4833 14.909 29.9408C13.6384 28.3983 13.0326 26.4143 13.2249 24.425C13.4172 22.4359 14.3918 20.6047 15.9343 19.3341C17.4768 18.0635 19.4608 17.4578 21.4499 17.65C21.705 17.661 21.9551 17.7239 22.185 17.835C22.4148 17.946 22.6196 18.1028 22.7867 18.2958C22.9539 18.4888 23.0798 18.7138 23.1569 18.9572C23.234 19.2006 23.2606 19.4571 23.235 19.7111C23.2094 19.9651 23.1322 20.2112 23.0082 20.4344C22.8842 20.6575 22.7159 20.8529 22.5136 21.0087C22.3114 21.1645 22.0795 21.2773 21.8321 21.3403C21.5847 21.4033 21.327 21.4151 21.0749 21.375C20.5869 21.3264 20.0941 21.3766 19.6259 21.5226C19.1577 21.6687 18.7237 21.9076 18.3499 22.225C17.9702 22.5313 17.6553 22.9101 17.4236 23.3393C17.1918 23.7685 17.0478 24.2396 16.9999 24.725C16.9482 25.2165 16.9949 25.7135 17.1371 26.1868C17.2794 26.6603 17.5144 27.1005 17.8285 27.482C18.1427 27.8638 18.5296 28.179 18.9668 28.4095C19.4039 28.64 19.8826 28.7813 20.3749 28.825C21.1888 28.8948 22.0035 28.702 22.6999 28.275C23.1243 28.0133 23.6353 27.9305 24.1205 28.0455C24.6058 28.1603 25.0254 28.4633 25.2874 28.8875C25.5494 29.312 25.6319 29.823 25.5172 30.3083C25.4022 30.7935 25.0992 31.2133 24.6749 31.475C23.5154 32.2145 22.1749 32.621 20.7999 32.65Z" fill="black"/>
<path d="M7.5 46.25C7.00472 46.2435 6.53157 46.044 6.18132 45.6938C5.8311 45.3435 5.63147 44.8702 5.625 44.375C5.625 37.625 7.425 33.125 16.25 33.125C16.7473 33.125 17.2242 33.3225 17.5758 33.6742C17.9274 34.0257 18.125 34.5028 18.125 35C18.125 35.4973 17.9274 35.9743 17.5758 36.3258C17.2242 36.6775 16.7473 36.875 16.25 36.875C10.375 36.875 9.375 38.75 9.375 44.375C9.36852 44.8702 9.1689 45.3435 8.81868 45.6938C8.46843 46.044 7.99527 46.2435 7.5 46.25Z" fill="black"/>
</svg>
