<svg width="60" height="60" viewBox="0 0 60 60" fill="none" xmlns="http://www.w3.org/2000/svg">
<path d="M14.25 37.5C10.0844 39.0882 7.5 41.3013 7.5 43.7493C7.5 48.5823 17.5736 52.5 30 52.5C42.4265 52.5 52.5 48.5823 52.5 43.7493C52.5 41.3013 49.9155 39.0882 45.75 37.5M30 22.5H30.025M45 22.5C45 32.6593 33.75 37.5 30 45C26.25 37.5 15 32.6593 15 22.5C15 14.2157 21.7157 7.5 30 7.5C38.2842 7.5 45 14.2157 45 22.5ZM32.5 22.5C32.5 23.8807 31.3807 25 30 25C28.6193 25 27.5 23.8807 27.5 22.5C27.5 21.1193 28.6193 20 30 20C31.3807 20 32.5 21.1193 32.5 22.5Z" stroke="black" stroke-width="3.28" stroke-linecap="round" stroke-linejoin="round"/>
</svg>
