<svg width="60" height="60" viewBox="0 0 60 60" fill="none" xmlns="http://www.w3.org/2000/svg">
<g clip-path="url(#clip0_118_173)">
<path d="M21.9809 14.07C22.1733 14.1994 22.3914 14.2614 22.6072 14.2614C22.969 14.2614 23.3246 14.0869 23.5415 13.7638C23.9546 13.149 25.4449 11.2177 27.2679 12.1685C28.6667 12.8978 29.9305 13.3286 31.1478 13.5603C31.1642 13.5643 31.2739 13.5865 31.3123 13.5903C32.6785 13.8312 33.9907 13.825 35.3752 13.7112C35.8781 13.6701 36.335 13.7739 36.7355 14.0205C37.2646 14.3466 37.9572 14.1815 38.283 13.6525C38.6086 13.1236 38.4439 12.4308 37.9149 12.105C37.0975 11.6018 36.1802 11.3878 35.1911 11.4695C34.3737 11.5365 33.6154 11.562 32.8689 11.5159C33.6052 9.56887 35.1059 7.98123 37.0551 7.15008C37.6263 6.90645 37.892 6.24569 37.6484 5.67435C37.4049 5.10315 36.744 4.83716 36.1726 5.08093C35.6512 5.30334 35.1552 5.56849 34.6868 5.87005C34.5879 4.76419 34.2115 3.67732 33.5586 2.73778C32.1852 0.760576 29.8498 -0.265845 27.4623 0.0593308C27.1052 0.107974 26.7929 0.324898 26.6226 0.642764C25.4855 2.76604 25.6325 5.31318 27.0063 7.28983C27.9777 8.6888 29.4678 9.632 31.0896 9.95127C30.9085 10.3304 30.7513 10.7227 30.6188 11.1256C29.8924 10.9123 29.1354 10.6053 28.3081 10.174C26.03 8.98642 23.4261 9.90291 21.6747 12.5092C21.3281 13.0248 21.4653 13.7235 21.9809 14.07ZM28.8536 6.00641C28.0795 4.89255 27.9076 3.49878 28.3619 2.24981C29.691 2.25951 30.9373 2.90691 31.7113 4.02105C32.4903 5.14237 32.6767 6.5786 32.2373 7.82293C30.9147 7.80184 29.632 7.12717 28.8536 6.00641ZM35.5739 17.0735C35.3557 17.3908 35.0038 17.5613 34.6459 17.5613C34.4261 17.5613 34.2044 17.4971 34.0098 17.3634C33.8778 17.2726 33.7337 17.2355 33.557 17.246C32.9401 17.2831 32.4039 16.8115 32.3664 16.1915C32.3287 15.5715 32.8009 15.0384 33.4209 15.0008C34.097 14.9602 34.7399 15.136 35.2838 15.5096C35.7957 15.8614 35.9255 16.5615 35.5739 17.0735ZM56.5638 2.35567C54.6133 0.94137 52.0698 0.742299 49.926 1.8355C48.9071 2.35482 48.0582 3.12946 47.4451 4.05226C47.1762 3.56921 46.8665 3.10499 46.5147 2.66608C46.1259 2.18134 45.4181 2.10332 44.9337 2.49176C44.4491 2.8802 44.3709 3.58791 44.7594 4.07279C46.1277 5.78021 46.6948 7.97251 46.3575 10.1001C45.1454 9.96617 43.9179 10.1939 42.807 10.7727C41.3299 11.5423 40.2427 12.836 39.7456 14.4152L39.0173 16.7284C36.6311 16.8102 34.2495 18.8342 33.0862 21.9138C32.8666 22.4948 33.1597 23.1439 33.7408 23.3633C33.8717 23.4128 34.0059 23.4362 34.1381 23.4362C34.5923 23.4362 35.0202 23.1588 35.1902 22.7086C36.0971 20.3081 38.0294 18.6876 39.5872 19.0189C40.1542 19.1397 40.72 18.8095 40.8941 18.2567L41.891 15.0905C42.2077 14.0844 42.9021 13.2593 43.8461 12.7675C44.7903 12.2756 45.8641 12.179 46.8707 12.496C46.8731 12.4967 46.8752 12.4974 46.8776 12.4981C48.9618 13.1582 50.1227 15.3896 49.466 17.4757L48.462 20.6646C48.2893 21.2127 48.5577 21.8026 49.0841 22.0328C49.4849 22.2081 49.8296 22.5107 50.1089 22.9323C50.4518 23.4501 51.1496 23.5919 51.6678 23.2486C52.1856 22.9056 52.3271 22.2077 51.9841 21.6899C51.6678 21.2125 51.2965 20.8123 50.8743 20.4929L51.6115 18.1512C52.5332 15.2235 51.1684 12.1147 48.5271 10.7553C48.6135 10.3015 48.6684 9.84484 48.691 9.38822C49.2938 9.56817 49.923 9.66011 50.556 9.66011C51.5774 9.66011 52.608 9.42351 53.5491 8.94383C55.6936 7.85077 57.0266 5.67547 57.028 3.26681C57.0286 2.9062 56.8557 2.56739 56.5638 2.35567ZM52.5279 6.93977C51.2947 7.56847 49.8371 7.56664 48.664 6.96746C48.8718 5.66591 49.7375 4.45617 50.9477 3.83942C52.1556 3.22351 53.5598 3.24192 54.7361 3.86135C54.5463 5.17681 53.7361 6.324 52.5279 6.93977ZM46.5695 20.8674C46.4194 21.3302 46.3618 21.7967 46.4044 22.19C46.4714 22.8076 46.0249 23.3624 45.4073 23.4293C45.3663 23.4338 45.3252 23.4359 45.2849 23.4359C44.718 23.4359 44.2305 23.0086 44.1682 22.4322C44.0708 21.5328 44.2551 20.7125 44.427 20.1827L45.6867 16.1823C45.8731 15.5899 46.5046 15.2605 47.0973 15.4473C47.6897 15.6339 48.0189 16.2654 47.8323 16.8579L46.5695 20.8674ZM7.05776 16.6011C7.81046 16.886 8.59929 17.0244 9.38151 17.0244C10.2614 17.0244 11.1328 16.8487 11.935 16.5092C12.0001 16.9154 12.091 17.3188 12.2072 17.7174C11.4875 17.9529 10.6898 18.1283 9.76349 18.2411C7.77475 18.4833 6.33656 19.8719 5.81821 22.0507C5.67439 22.6549 6.04765 23.2614 6.65203 23.4052C6.73948 23.426 6.82706 23.436 6.91324 23.436C7.42216 23.436 7.88343 23.0881 8.0063 22.5714C8.21324 21.702 8.73313 20.6325 10.0354 20.474C11.5891 20.2848 12.8654 19.9274 13.9933 19.4354C14.0188 19.4266 14.0443 19.4182 14.0695 19.4075C14.11 19.3904 14.1485 19.3707 14.1858 19.3496C15.4428 18.7754 16.5187 18.0305 17.592 17.1558C18.2306 16.6352 18.9845 16.5065 19.8333 16.7728C21.4807 17.2903 23.0533 19.129 23.6576 21.2446C23.7694 21.6357 23.8525 22.0423 23.9046 22.4529C23.9831 23.069 24.545 23.5055 25.1622 23.4268C25.7784 23.3484 26.2143 22.7854 26.1362 22.1692C26.0695 21.6459 25.9634 21.1269 25.8206 20.6267C25.0075 17.7807 22.8722 15.3695 20.5072 14.6267C18.9372 14.1334 17.3972 14.4125 16.1709 15.4121C15.5351 15.9301 14.9244 16.3803 14.2831 16.7651C13.7878 14.7434 14.126 12.5853 15.262 10.7969C15.595 10.2726 15.4399 9.57759 14.9156 9.24454C14.3912 8.91135 13.6962 9.06656 13.3632 9.59094C13.0621 10.065 12.8054 10.5596 12.5911 11.0682C11.8803 10.2198 10.9516 9.54357 9.88158 9.13868C7.63051 8.28687 5.124 8.76345 3.34038 10.3822C3.07341 10.6245 2.93886 10.9802 2.97851 11.3386C3.24323 13.7329 4.80627 15.7493 7.05776 16.6011ZM9.08544 11.2424C10.3572 11.7238 11.351 12.8296 11.7002 14.097C10.598 14.8237 9.14828 14.9871 7.85376 14.4971C6.58525 14.0172 5.65429 12.9657 5.3218 11.6788C6.4233 10.9344 7.81707 10.7626 9.08544 11.2424ZM22.3429 21.986C22.5062 22.5853 22.1528 23.2035 21.5536 23.3669C21.4545 23.3939 21.355 23.4068 21.2571 23.4068C20.7624 23.4068 20.3092 23.078 20.1726 22.5776C19.9716 21.84 19.4199 21.1879 18.831 20.9919C18.4545 20.8667 18.2303 20.9931 18.0944 21.0992C17.6046 21.4812 16.8977 21.3937 16.5158 20.9039C16.1339 20.4141 16.2213 19.7074 16.7111 19.3254C17.5281 18.6884 18.5334 18.5223 19.5411 18.8577C20.8431 19.2908 21.9429 20.5189 22.3429 21.986ZM8.93726 46.8133C9.55837 46.8133 10.062 47.3169 10.062 47.938V48.2263C10.062 48.8474 9.55837 49.351 8.93726 49.351C8.31615 49.351 7.81257 48.8474 7.81257 48.2263V47.938C7.81257 47.3169 8.31615 46.8133 8.93726 46.8133ZM48.8589 49.351C48.2377 49.351 47.7342 48.8474 47.7342 48.2263V47.938C47.7342 47.3169 48.2377 46.8133 48.8589 46.8133C49.48 46.8133 49.9835 47.3169 49.9835 47.938V48.2263C49.9835 48.8476 49.48 49.351 48.8589 49.351ZM8.93726 38.0129C9.55837 38.0129 10.062 38.5164 10.062 39.1376V39.4259C10.062 40.047 9.55837 40.5506 8.93726 40.5506C8.31615 40.5506 7.81257 40.047 7.81257 39.4259V39.1376C7.81257 38.5164 8.31615 38.0129 8.93726 38.0129ZM48.8589 40.5506C48.2377 40.5506 47.7342 40.047 47.7342 39.4259V39.1376C47.7342 38.5164 48.2377 38.0129 48.8589 38.0129C49.48 38.0129 49.9835 38.5164 49.9835 39.1376V39.4259C49.9835 40.0471 49.48 40.5506 48.8589 40.5506ZM51.0873 24.9565H6.70855C4.94573 24.9565 3.51161 26.3907 3.51161 28.1537V32.8092C3.51161 33.5994 3.80038 34.323 4.27711 34.8817C3.80038 35.4403 3.51161 36.1639 3.51161 36.9541V41.6096C3.51161 42.3999 3.80038 43.1235 4.27711 43.682C3.80038 44.2406 3.51161 44.9643 3.51161 45.7545V50.4102C3.51161 52.1731 4.94573 53.6073 6.70855 53.6073H25.9514C26.5726 53.6073 27.0761 53.1037 27.0761 52.4826C27.0761 51.8615 26.5726 51.3579 25.9514 51.3579H6.70855C6.18599 51.3579 5.76099 50.9328 5.76099 50.4102V45.7545C5.76099 45.232 6.18599 44.8067 6.70855 44.8067H33.5733C34.1944 44.8067 34.698 44.3031 34.698 43.682C34.698 43.0609 34.1944 42.5573 33.5733 42.5573H6.70855C6.18599 42.5573 5.76099 42.1322 5.76099 41.6096V36.9541C5.76099 36.4315 6.18599 36.0064 6.70855 36.0064H51.0873C51.6099 36.0064 52.0348 36.4315 52.0348 36.9541V41.6096C52.0348 42.1322 51.6099 42.5573 51.0873 42.5573H43.2642C42.6431 42.5573 42.1395 43.0609 42.1395 43.682C42.1395 44.3031 42.6431 44.8067 43.2642 44.8067H51.0873C51.6099 44.8067 52.0348 45.2318 52.0348 45.7545V50.4102C52.0348 50.9328 51.6099 51.3579 51.0873 51.3579H47.2788C46.6577 51.3579 46.1541 51.8615 46.1541 52.4826C46.1541 53.1037 46.6577 53.6073 47.2788 53.6073H51.0873C52.8501 53.6073 54.2842 52.173 54.2842 50.4102V45.7545C54.2842 44.9643 53.9955 44.2407 53.5187 43.682C53.9955 43.1235 54.2842 42.3999 54.2842 41.6096V36.9541C54.2842 36.1639 53.9955 35.4403 53.5187 34.8817C53.9955 34.3232 54.2842 33.5994 54.2842 32.8092V28.1537C54.2842 26.3906 52.8501 24.9565 51.0873 24.9565ZM5.76099 28.1535C5.76099 27.631 6.18599 27.2057 6.70855 27.2057H51.0873C51.6099 27.2057 52.0348 27.6308 52.0348 28.1535V32.8091C52.0348 33.3316 51.6099 33.7569 51.0873 33.7569H6.70855C6.18599 33.7569 5.76099 33.3318 5.76099 32.8091V28.1535ZM7.81257 30.6255V30.3371C7.81257 29.716 8.31615 29.2124 8.93726 29.2124C9.55837 29.2124 10.062 29.716 10.062 30.3371V30.6255C10.062 31.2466 9.55837 31.7502 8.93726 31.7502C8.31615 31.7502 7.81257 31.2466 7.81257 30.6255ZM47.7342 30.6255V30.3371C47.7342 29.716 48.2377 29.2124 48.8589 29.2124C49.48 29.2124 49.9835 29.716 49.9835 30.3371V30.6255C49.9835 31.2466 49.48 31.7502 48.8589 31.7502C48.2377 31.7502 47.7342 31.2466 47.7342 30.6255ZM42.622 47.5425C41.6236 46.6688 40.3947 46.3751 39.1612 46.7152H39.1614C38.7275 46.8348 38.3146 46.9332 37.9063 47.0036C38.2341 45.71 39.0286 44.5636 40.163 43.8036C40.679 43.4579 40.817 42.7593 40.4713 42.2432C40.1256 41.7273 39.4269 41.5891 38.9108 41.9348C37.1354 43.1243 35.9512 44.9848 35.6003 47.0562C35.1323 46.9939 34.6374 46.8867 34.0949 46.7228C32.8794 46.3554 31.6585 46.6236 30.6576 47.4783C29.1616 48.7556 28.3702 51.1716 28.6884 53.49C29.1893 57.1405 32.0889 60 35.2893 60C35.7441 60 36.1884 59.9407 36.6149 59.8233C37.0416 59.9407 37.4858 60 37.9406 60C41.1411 60 44.0405 57.1405 44.5416 53.49C44.8541 51.2111 44.0829 48.821 42.622 47.5425ZM42.3132 53.1842C41.9734 55.6594 39.9711 57.7506 37.9406 57.7506C37.6122 57.7506 37.2972 57.6958 37.0042 57.5877C36.8785 57.5413 36.7468 57.5182 36.6149 57.5182C36.483 57.5182 36.3512 57.5414 36.2255 57.5878C35.9326 57.6959 35.6177 57.7506 35.2893 57.7506C33.2588 57.7506 31.2565 55.6594 30.9168 53.1844C30.7055 51.6441 31.2108 49.9638 32.1183 49.1889C32.5336 48.8345 32.967 48.732 33.4441 48.876C34.5985 49.2249 35.6079 49.3679 36.5542 49.3697C36.5688 49.3704 36.6606 49.3706 36.6837 49.3691C37.7468 49.3565 38.7338 49.1664 39.7591 48.8836H39.7593C40.2602 48.7452 40.7122 48.8604 41.1404 49.2352C42.0417 50.0239 42.5239 51.6478 42.3132 53.1842Z" fill="black"/>
</g>
<defs>
<clipPath id="clip0_118_173">
<rect width="60" height="60" fill="white"/>
</clipPath>
</defs>
</svg>
