<svg width="60" height="60" viewBox="0 0 60 60" fill="none" xmlns="http://www.w3.org/2000/svg">
<path fill-rule="evenodd" clip-rule="evenodd" d="M6.04629 41.7169C5.69754 41.7714 5.36484 41.8857 5.05676 42.052C5.24098 42.3464 5.47383 42.6109 5.74641 42.8343C6.08449 43.1123 6.48797 43.3249 6.94031 43.4475C7.39277 43.5674 7.84758 43.5866 8.27988 43.5156C8.62734 43.4584 8.95969 43.3439 9.26777 43.1803C9.0852 42.8861 8.85246 42.619 8.57977 42.3955C8.24039 42.1174 7.83703 41.9048 7.38586 41.7824C7.04648 41.6923 6.39094 41.6597 6.04629 41.7169ZM10.3091 38.3209C9.97641 38.6534 9.73371 39.0376 9.57867 39.4465C9.45574 39.7761 9.38789 40.1224 9.37676 40.4713C9.72422 40.4576 10.0705 40.3922 10.4004 40.2669C10.7067 40.1523 11.2821 39.7816 11.526 39.5391C11.857 39.2066 12.1009 38.8195 12.2551 38.4107C12.3789 38.0836 12.4455 37.7375 12.4579 37.3887C12.1104 37.3996 11.7645 37.4677 11.4347 37.5904C11.1061 37.7159 10.5571 38.0729 10.3091 38.3209ZM5.37586 39.2148C5.0284 39.272 4.69441 39.3865 4.38633 39.5501C4.56609 39.8389 4.79109 40.1005 5.0543 40.3187L5.07609 40.335C5.41535 40.6131 5.82012 40.8258 6.26965 40.9457C6.35684 40.9702 6.44566 40.9893 6.53402 41.0057C6.7466 41.003 6.96211 41.0193 7.17727 41.0546C7.32328 41.052 7.46766 41.0384 7.61074 41.0138C7.95703 40.9564 8.28937 40.8448 8.59734 40.6786C8.41477 40.3842 8.1832 40.1197 7.90922 39.8962C7.57242 39.6156 7.16766 39.4057 6.7166 39.2831C6.37617 39.193 5.72051 39.1576 5.37586 39.2148ZM10.3733 35.271C10.2026 35.4101 10.0229 35.5325 9.83742 35.6391C9.76957 35.6963 9.70254 35.7563 9.63879 35.8216C9.30727 36.1514 9.0634 36.5384 8.90965 36.9472C8.78543 37.277 8.71758 37.6233 8.70645 37.9693C9.0552 37.9584 9.40148 37.8904 9.73008 37.7677C10.0583 37.6423 10.6061 37.2852 10.8557 37.0372C11.1867 36.7048 11.4319 36.3205 11.5845 35.9116C11.7098 35.5819 11.777 35.2356 11.7888 34.8895C11.4401 34.9004 11.0938 34.9685 10.7644 35.0912C10.632 35.1401 10.5 35.2001 10.3733 35.271ZM11.1185 32.3872C10.7698 32.3982 10.4235 32.4663 10.0936 32.5917C9.68473 32.7443 9.29777 32.9897 8.96953 33.3195C8.63801 33.6492 8.39414 34.0363 8.24039 34.445C8.115 34.7748 8.04668 35.121 8.03602 35.4698C8.38477 35.4589 8.73105 35.3907 9.05918 35.2654C9.19289 35.2164 9.32484 35.1564 9.45199 35.0882C9.62227 34.9492 9.80074 34.8266 9.98742 34.7203C10.0553 34.663 10.1211 34.6004 10.1865 34.5376C10.5176 34.205 10.7614 33.8208 10.9153 33.412C11.0395 33.0824 11.1079 32.7362 11.1185 32.3872ZM4.03477 34.2135C3.68848 34.2707 3.35496 34.3852 3.04688 34.5486C3.23074 34.8457 3.46219 35.1101 3.73617 35.3336C4.07309 35.6115 4.47645 35.8242 4.92891 35.9468C5.01727 35.9687 5.10609 35.9877 5.19328 36.004C5.40586 36.004 5.62102 36.0204 5.83652 36.0557C5.98336 36.0503 6.12809 36.0366 6.26965 36.0148C6.61711 35.9576 6.95109 35.8431 7.25918 35.6796C7.07531 35.3824 6.84211 35.118 6.56941 34.8947C6.2318 34.6166 5.82832 34.404 5.37586 34.2814C4.92352 34.1617 4.46824 34.1426 4.03477 34.2135ZM4.7052 36.7154C4.35926 36.7727 4.0241 36.8873 3.7173 37.0507C3.90117 37.3451 4.13309 37.6122 4.40543 37.8357C4.74633 38.1136 5.1498 38.3263 5.59934 38.4462C5.68781 38.4707 5.77664 38.4899 5.86383 38.5062C6.07641 38.5035 6.29156 38.5198 6.50707 38.5553C6.65426 38.5526 6.79863 38.5389 6.94055 38.5144C7.28648 38.4571 7.62164 38.3426 7.92844 38.1791C7.74457 37.8847 7.51266 37.6177 7.24031 37.3942C6.55875 36.8327 5.57871 36.5711 4.7052 36.7154ZM45.1564 25.1509H14.7599V46.5738H45.1564V25.1509ZM10.8134 24.4805C23.5718 24.4805 36.3285 24.4805 49.0853 24.4805L29.7844 12.3518L10.8134 24.4805ZM21.1157 32.4499H18.0361V35.5272H21.1157V32.4499ZM18.0361 39.2775H21.1157V36.1977H18.0361V39.2775ZM24.866 32.4499H21.7864V35.5272H24.866V32.4499ZM21.7864 39.2775H24.866V36.1977H21.7864V39.2775ZM25.2016 39.948H21.4595H21.4513H21.4431H17.7009C17.5167 39.948 17.3658 39.7982 17.3658 39.6129V35.8734V35.8624V35.8543V32.1149C17.3658 31.9296 17.5167 31.7797 17.7009 31.7797H21.4431H21.4513H21.4595H25.2016C25.3855 31.7797 25.5368 31.9296 25.5368 32.1149V35.8543V35.8624V35.8734V39.6129C25.5368 39.798 25.3855 39.948 25.2016 39.948ZM38.1302 32.4499H35.0503V35.5272H38.1302V32.4499ZM35.0503 39.2775H38.1302V36.1977H35.0503V39.2775ZM41.8807 32.4499H38.8007V35.5272H41.8807V32.4499ZM38.8007 39.2775H41.8807V36.1977H38.8007V39.2775ZM42.2157 39.948H38.4749H38.4655H38.4573H34.715C34.5308 39.948 34.3811 39.7982 34.3811 39.6129V35.8734V35.8624V35.8543V32.1149C34.3811 31.9296 34.5307 31.7797 34.715 31.7797H38.4573H38.4655H38.4749H42.2157C42.3996 31.7797 42.5494 31.9296 42.5494 32.1149V35.8543V35.8624V35.8734V39.6129C42.5494 39.798 42.3997 39.948 42.2157 39.948ZM49.0215 40.8202L49.0391 40.8393C49.3607 41.1636 49.5976 41.5425 49.7502 41.9457C49.8744 42.2755 49.9427 42.6217 49.9533 42.9705C49.6057 42.9596 49.2599 42.8914 48.9301 42.7662C48.5214 42.6135 48.1356 42.371 47.8045 42.0384C47.473 41.7059 47.2291 41.3216 47.0753 40.9129C46.9511 40.5831 46.8832 40.2369 46.8722 39.888C47.2196 39.9016 47.5659 39.9671 47.8958 40.0924C48.2229 40.2151 48.7736 40.5722 49.0215 40.8202ZM53.9546 41.7169C54.3022 41.7714 54.6361 41.8857 54.9425 42.052C54.7588 42.3464 54.5272 42.6109 54.2545 42.8343C53.9164 43.1123 53.5131 43.3249 53.0606 43.4475C52.607 43.5674 52.1516 43.5866 51.7199 43.5156C51.3736 43.4584 51.0396 43.3439 50.7315 43.1803C50.9157 42.8861 51.1474 42.619 51.42 42.3955C51.7605 42.1174 52.164 41.9048 52.6136 41.7824C52.9528 41.6923 53.6084 41.6597 53.9546 41.7169ZM49.6907 38.3209C50.0229 38.6534 50.2668 39.0376 50.421 39.4465C50.5448 39.7761 50.6118 40.1224 50.6237 40.4713C50.2748 40.4576 49.929 40.3922 49.6005 40.2669C49.2718 40.1442 48.7228 39.7871 48.475 39.5391C48.1421 39.2066 47.8983 38.8195 47.7445 38.4107C47.6203 38.0836 47.5537 37.7375 47.5414 37.3887C47.8902 37.3996 48.2365 37.4677 48.565 37.5904C48.8932 37.7159 49.4427 38.0729 49.6907 38.3209ZM54.6251 39.2148C54.9714 39.272 55.3054 39.3865 55.613 39.5501C55.4333 39.8389 55.2083 40.1005 54.9456 40.3187L54.925 40.335C54.5844 40.6131 54.1809 40.8258 53.7311 40.9457C53.3917 41.0384 52.735 41.0709 52.3904 41.0138C52.0429 40.9564 51.7102 40.8448 51.4021 40.6786C51.5863 40.3842 51.8178 40.1197 52.0905 39.8962C52.4286 39.6156 52.8316 39.4057 53.2845 39.2831C53.6236 39.193 54.2788 39.1576 54.6251 39.2148ZM50.361 35.8215C50.6933 36.1513 50.9359 36.5382 51.0902 36.9471C51.2141 37.2769 51.2823 37.6232 51.293 37.9692C50.9454 37.9583 50.5996 37.8902 50.2697 37.7675C49.9617 37.6504 49.3891 37.2823 49.1441 37.0371C48.8132 36.7046 48.5692 36.3204 48.415 35.9115C48.2911 35.5818 48.2229 35.2355 48.2119 34.8894C48.5593 34.9003 48.9056 34.9684 49.2354 35.0911C49.5623 35.2137 50.113 35.5707 50.361 35.8215ZM48.8825 32.3872C49.2301 32.3982 49.5759 32.4663 49.9057 32.5917C50.3145 32.7443 50.7015 32.9897 51.0313 33.3195C51.3623 33.6492 51.605 34.0363 51.7605 34.445C51.8848 34.7748 51.9526 35.121 51.9636 35.4698C51.6161 35.4589 51.2698 35.3907 50.94 35.2654C50.5966 35.1373 50.064 34.7857 49.8144 34.5377C49.4821 34.2052 49.2382 33.8209 49.0841 33.4122C48.9615 33.0824 48.8932 32.7362 48.8825 32.3872ZM55.9645 34.2135C56.3121 34.2707 56.646 34.3852 56.9529 34.5486C56.7687 34.8457 56.537 35.1101 56.2644 35.3336C55.9267 35.6115 55.5233 35.8242 55.0709 35.9468C54.7287 36.0367 54.0784 36.0721 53.7298 36.0149C53.3822 35.9577 53.0483 35.8432 52.7418 35.6797C52.9256 35.3825 53.1572 35.1182 53.4299 34.8948C53.768 34.6167 54.1713 34.4041 54.6238 34.2816C55.0761 34.1617 55.5327 34.1426 55.9645 34.2135ZM55.2942 36.7154C55.6418 36.7727 55.9757 36.8873 56.2821 37.0507C56.0995 37.3451 55.8668 37.6122 55.5941 37.8357C55.2547 38.1136 54.8514 38.3263 54.4002 38.4462C54.0609 38.5389 53.4054 38.5716 53.0607 38.5144C52.7132 38.4571 52.3793 38.3426 52.0712 38.1791C52.2554 37.8847 52.4883 37.6177 52.761 37.3942C53.0978 37.1162 53.5008 36.9035 53.9549 36.7836C54.2927 36.6909 54.9496 36.6581 55.2942 36.7154ZM6.56695 32.837C6.52055 32.6571 6.62543 32.4745 6.80379 32.4282C6.98227 32.3791 7.1666 32.4854 7.21266 32.6626L8.14207 36.1322C8.29219 36.1241 8.44066 36.1077 8.58914 36.0831C8.47195 36.2766 8.37234 36.4811 8.29219 36.6909L8.81238 38.6344C8.9625 38.6262 9.11098 38.6098 9.25945 38.5826C9.14098 38.7789 9.04266 38.9832 8.9625 39.1904L9.48316 41.1336C9.63281 41.1257 9.78012 41.1091 9.92859 41.0846C9.81141 41.2781 9.7118 41.4826 9.63293 41.6898L10.8622 46.2823C10.9099 46.4595 10.8037 46.6448 10.6254 46.691C10.4466 46.7374 10.2627 46.6338 10.2162 46.4539L8.9857 41.8615C8.8125 41.7224 8.62629 41.5971 8.42719 41.488C8.56746 41.4334 8.70352 41.3762 8.83723 41.3082L8.31656 39.3648C8.14219 39.2231 7.95422 39.0977 7.75512 38.9861C7.89703 38.9344 8.0332 38.8743 8.1668 38.8089L7.64613 36.8629C7.47176 36.7238 7.28508 36.5958 7.08598 36.4867C7.22625 36.435 7.36406 36.375 7.49637 36.3068L6.56695 32.837ZM5.08969 31.7086C5.04328 31.5314 5.14969 31.3488 5.32652 31.2998C5.50664 31.2534 5.68922 31.3598 5.73691 31.5369L6.17156 33.1613C6.21926 33.3384 6.11273 33.521 5.93426 33.57C5.75578 33.6164 5.57191 33.5101 5.52551 33.333L5.08969 31.7086ZM7.1884 31.1472C7.14187 30.97 7.24805 30.7847 7.42523 30.7384C7.60535 30.6893 7.78793 30.7956 7.83562 30.9755L8.27027 32.5971C8.31633 32.777 8.21145 32.9597 8.03297 33.006C7.85449 33.0551 7.67062 32.9488 7.6241 32.7689L7.1884 31.1472ZM34.1126 12.3763C34.2681 12.4745 34.3146 12.6789 34.2163 12.837C34.118 12.9922 33.9123 13.0386 33.7569 12.9405L29.5159 10.2777L9.58113 23.0223C9.42609 23.1205 9.22008 23.074 9.12047 22.9215C9.02262 22.7663 9.06867 22.5591 9.22406 22.4609L29.3225 9.60703C29.4302 9.53356 29.5759 9.52535 29.6931 9.59895L34.1126 12.3763ZM9.9982 48.5689C9.81316 48.5689 9.66305 48.4191 9.66305 48.2337C9.66305 48.0484 9.81316 47.8985 9.9982 47.8985H39.1288C39.3143 47.8985 39.4643 48.0484 39.4643 48.2337C39.4643 48.4191 39.3143 48.5689 39.1288 48.5689H9.9982ZM27.056 50.4521C26.8721 50.4521 26.7209 50.3023 26.7209 50.117C26.7209 49.9317 26.8723 49.7818 27.056 49.7818H47.2145C47.4 49.7818 47.5496 49.9317 47.5496 50.117C47.5496 50.3023 47.4 50.4521 47.2145 50.4521H27.056ZM49.2777 50.4521C49.0935 50.4521 48.9422 50.3023 48.9422 50.117C48.9422 49.9317 49.0935 49.7818 49.2777 49.7818H51.7972C51.9826 49.7818 52.1327 49.9317 52.1327 50.117C52.1327 50.3023 51.9826 50.4521 51.7972 50.4521H49.2777ZM8.8507 50.3951C8.66566 50.3951 8.51555 50.2452 8.51555 50.0598C8.51555 49.8744 8.66566 49.7245 8.8507 49.7245H18.4024C18.5863 49.7245 18.7376 49.8744 18.7376 50.0598C18.7376 50.2452 18.5862 50.3951 18.4024 50.3951H8.8507ZM52.7501 32.6626C52.7978 32.4854 52.9805 32.3791 53.1588 32.4282C53.3373 32.4747 53.4435 32.6571 53.3957 32.837L52.4703 36.2904C52.6134 36.3639 52.7618 36.4294 52.9148 36.4866C52.7088 36.6011 52.5156 36.732 52.337 36.8763L52.307 36.9035L51.7999 38.7923C51.9442 38.8659 52.0915 38.9314 52.2441 38.9858C52.0384 39.1003 51.8463 39.2311 51.6679 39.3783L51.6361 39.4029L51.1307 41.2916C51.2738 41.3653 51.4211 41.4307 51.5723 41.4879C51.3663 41.5997 51.1744 41.7304 50.9958 41.8775L50.9671 41.9021L49.7476 46.4538C49.6999 46.6337 49.5161 46.7373 49.3372 46.6909C49.1587 46.6446 49.0526 46.4592 49.1004 46.2822L50.3456 41.6351C50.2696 41.4471 50.1783 41.2616 50.0705 41.0845C50.2066 41.1063 50.3432 41.1227 50.481 41.1309L51.0164 39.1359C50.9399 38.945 50.8485 38.7598 50.7408 38.5826C50.8773 38.6071 51.0135 38.6235 51.1495 38.6317L51.6854 36.6338C51.6089 36.4458 51.5176 36.2604 51.4114 36.0832C51.5463 36.1078 51.6825 36.1214 51.8202 36.1323L52.7501 32.6626ZM54.2258 31.5369C54.2734 31.3597 54.4577 31.2534 54.6362 31.2998C54.8147 31.3488 54.9209 31.5315 54.873 31.7086L54.4384 33.333C54.3907 33.5102 54.2067 33.6165 54.0284 33.57C53.8499 33.521 53.7432 33.3383 53.7911 33.1613L54.2258 31.5369ZM52.127 30.9755C52.1747 30.7956 52.3589 30.6893 52.5374 30.7384C52.7159 30.7848 52.822 30.9701 52.7742 31.1472L52.3396 32.7689C52.2919 32.9488 52.1079 33.0551 51.9295 33.006C51.7511 32.9596 51.6462 32.777 51.6922 32.5971L52.127 30.9755ZM13.1271 39.888C12.7796 39.9016 12.4337 39.9671 12.1051 40.0924C11.7782 40.2151 11.2275 40.5722 10.9795 40.8202L10.9605 40.8393C10.6389 41.1636 10.4016 41.5425 10.2491 41.9457C10.1265 42.2755 10.0583 42.6217 10.0459 42.9705C10.3934 42.9596 10.7396 42.8914 11.0695 42.7662C11.4783 42.6135 11.8641 42.371 12.1951 42.0384C12.5273 41.7059 12.7713 41.3216 12.9255 40.9129C13.0481 40.5831 13.1164 40.2369 13.1271 39.888Z" fill="black"/>
</svg>
